<?xml version="1.0" encoding="UTF-8" standalone="no"?>
<!-- Created with Inkscape (http://www.inkscape.org/) -->

<svg
   width="210mm"
   height="297mm"
   viewBox="0 0 210 297"
   version="1.1"
   id="svg1"
   sodipodi:docname="keyhole.svg"
   inkscape:version="1.4 (e7c3feb100, 2024-10-09)"
   xmlns:inkscape="http://www.inkscape.org/namespaces/inkscape"
   xmlns:sodipodi="http://sodipodi.sourceforge.net/DTD/sodipodi-0.dtd"
   xmlns="http://www.w3.org/2000/svg"
   xmlns:svg="http://www.w3.org/2000/svg">
  <sodipodi:namedview
     id="namedview1"
     pagecolor="#ffffff"
     bordercolor="#000000"
     borderopacity="0.25"
     inkscape:showpageshadow="2"
     inkscape:pageopacity="0.0"
     inkscape:pagecheckerboard="0"
     inkscape:deskcolor="#d1d1d1"
     inkscape:document-units="mm"
     inkscape:zoom="1"
     inkscape:cx="514.5"
     inkscape:cy="404"
     inkscape:window-width="1918"
     inkscape:window-height="1059"
     inkscape:window-x="0"
     inkscape:window-y="19"
     inkscape:window-maximized="1"
     inkscape:current-layer="layer2" />
  <defs
     id="defs1" />
  <g
     inkscape:groupmode="layer"
     id="layer2"
     inkscape:label="render"
     style="display:inline">
    <path
       id="rect16"
       style="display:inline;fill:none;stroke:#000000;stroke-width:0.585061;stroke-linecap:square;stroke-linejoin:round;stroke-dasharray:none;paint-order:stroke fill markers"
       inkscape:label="level"
       d="M -2.7641724,4.8358805 V 156.99145 H 211.50492 V 4.8358805 Z M 142.56804,27.417448 l 1.64951,6.677112 2.62827,-6.355168 1.12086,6.785632 3.11867,-6.129341 0.58498,6.852811 3.58944,-5.865791 0.046,6.877616 4.03851,-5.565552 -0.49351,6.860047 4.46278,-5.231722 -1.02992,6.800101 4.85914,-4.865336 -1.56011,6.698299 5.22552,-4.468461 -2.08049,6.555156 5.55986,-4.044715 -2.58795,6.371704 5.8601,-3.596162 -3.07991,6.148978 6.12366,-3.124874 -3.55224,5.888013 6.35,-2.633948 -4.00337,5.590874 6.53706,-2.128036 -4.4297,5.259627 6.68435,-1.60817 -4.82865,4.895825 6.78925,-1.078487 -5.1971,4.501534 6.85281,-0.542086 -5.53403,4.079854 6.874,-0.0031 -5.83685,3.632336 6.85333,0.537435 -6.10402,3.163115 6.78977,1.073319 -6.33347,2.674255 6.68538,1.603003 -6.52363,2.169377 6.53862,2.122351 -6.6735,1.650545 6.35207,2.629297 -6.78253,1.121379 6.12624,3.120223 -6.84919,0.585494 5.86269,3.591512 -6.874,0.04599 5.56297,4.040067 -6.85695,-0.49351 5.22914,4.46484 -6.797,-1.03043 4.86275,4.86121 -6.69468,-1.56063 4.46639,5.2281 -6.55205,-2.08152 4.04264,5.56245 -6.3686,-2.58951 3.5941,5.86269 -6.14588,-3.08095 3.12332,6.12676 -5.88543,-3.5543 2.63343,6.3531 -5.58829,-4.00544 2.12649,6.54017 -5.25704,-4.43126 1.60713,6.68693 -4.89324,-4.83071 1.07797,6.79235 -4.49947,-5.19968 0.54209,6.85643 -4.07779,-5.53713 0.003,6.87761 -3.63078,-5.83995 -0.53692,6.85694 -3.16208,-6.10712 -1.0728,6.79339 -2.67271,-6.33657 -1.60249,6.68848 -2.16782,-6.52673 -2.12184,6.54172 -1.64951,-6.67659 -2.62826,6.35516 -1.12086,-6.78615 -3.11868,6.12935 -0.58497,-6.85282 -3.58996,5.8658 -0.046,-6.87762 -4.03851,5.56555 0.49351,-6.85953 -4.46278,5.23121 1.03043,-6.80011 -4.85913,4.86534 1.55959,-6.6983 -5.22552,4.46846 -0.0636,0.17312 c -0.60641,-0.35523 -1.20596,-0.72203 -1.79834,-1.10019 H 80.729439 v 7.64553 l -4.212662,-7.26209 -4.193026,7.26209 -4.212663,-7.26209 -4.193026,7.26209 -4.212662,-7.26209 -4.193026,7.26209 -4.212663,-7.26209 -4.193026,7.26209 v -7.64553 H 19.226217 V 89.520117 h 0.349849 66.51842 29.418364 A 26.458332,26.458332 0 0 0 140.89062,108.50035 26.458332,26.458332 0 0 0 167.34896,82.042021 26.458332,26.458332 0 0 0 140.89062,55.583687 26.458332,26.458332 0 0 0 116.35465,72.307214 H 86.532186 19.576066 v -37.14967 h 92.264654 l 1.91203,-0.711068 4.89324,4.830713 -1.07797,-6.79235 4.49946,5.199682 -0.54208,-6.856429 4.07779,5.53713 -0.003,-6.877616 3.6313,5.839953 0.53692,-6.856429 3.16156,6.107121 1.0728,-6.793384 2.67323,6.336048 1.60196,-6.687964 2.16835,6.526733 z" />
  </g>
  <g
     inkscape:label="collision"
     inkscape:groupmode="layer"
     id="layer1"
     style="display:inline">
    <path
       id="path6"
       style="fill:none;stroke:#5dd2c3;stroke-width:0.626875;stroke-linecap:square;stroke-linejoin:round;stroke-dasharray:none;stroke-opacity:1;paint-order:stroke fill markers"
       d="m 80.72944,126.66979 h 27.83241 m 3.27887,-91.512246 H 19.576067 v 37.14967 h 66.95612 l 29.790543,-0.01267 A 26.485,26.485 0 1 1 115.504,89.521 L 86.089787,89.5198 h -66.51842 -0.349849 v 37.14968 h 27.880468"
       sodipodi:nodetypes="cccccccssscccccc" />
  </g>
  <g
     inkscape:groupmode="layer"
     id="layer3"
     inkscape:label="kill"
     style="display:inline">
    <path
       id="path11"
       style="opacity:1;fill:none;fill-opacity:1;stroke:#eb7171;stroke-width:1.346;stroke-linecap:square;stroke-linejoin:round;stroke-opacity:1;paint-order:stroke fill markers"
       d="m 140.12943,24.882719 a 56.500778,56.500778 0 0 0 -29.16153,8.212935 l 7.85017,7.201111 a 47.146343,47.146343 0 0 1 21.6855,-5.311304 47.146343,47.146343 0 0 1 47.14647,47.146477 47.146343,47.146343 0 0 1 -47.14647,47.146472 47.146343,47.146343 0 0 1 -24.74784,-7.18767 l -7.64657,5.7211 a 56.500778,56.500778 0 0 0 32.02027,10.07225 56.500778,56.500778 0 0 0 56.50095,-56.500427 56.500778,56.500778 0 0 0 -56.50095,-56.500944 z" />
    <rect
       style="display:inline;opacity:1;fill:none;fill-opacity:1;stroke:#eb7171;stroke-width:1.346;stroke-linecap:square;stroke-linejoin:round;stroke-opacity:1;paint-order:stroke fill markers"
       id="rect15"
       width="33.627453"
       height="7.645844"
       x="47.101986"
       y="126.66947" />
  </g>
  <g
     inkscape:groupmode="layer"
     id="layer4"
     inkscape:label="stage-objects">
    <circle
       style="opacity:1;fill:none;fill-opacity:1;stroke:#3cef0f;stroke-width:1.346;stroke-linecap:square;stroke-linejoin:round;stroke-opacity:1;paint-order:stroke fill markers"
       id="path15"
       cx="96.44062"
       cy="123.29583"
       r="2.3812499"
       inkscape:label="spawn" />
    <rect
       style="display:inline;fill:none;stroke:#3c4bb5;stroke-width:0.585061;stroke-linecap:square;stroke-linejoin:round;stroke-dasharray:none;stroke-opacity:1;paint-order:stroke fill markers"
       id="rect1"
       height="152.15558"
       x="-2.7643566"
       y="4.8358231"
       inkscape:label="bounds"
       width="214.26929" />
  </g>
</svg>
